{
  "accessors": [
    {
      "bufferView": 1,
      "componentType": 5126,
      "count": 65532,
      "max": [
        210.8031768798828,
        0.0,
        186.41795349121094
      ],
      "min": [
        45.88420104980469,
        -134.32171630859375,
        48.966941833496094
      ],
      "type": "VEC3"
    },
    {
      "bufferView": 1,
      "byteOffset": 786384,
      "componentType": 5126,
      "count": 65532,
      "max": [
        0.9999936819076538,
        0.9996888041496277,
        0.9999724626541138
      ],
      "min": [
        -0.9999963045120239,
        -0.9999012351036072,
        -0.9999993443489075
      ],
      "type": "VEC3"
    },
    {
      "bufferView": 0,
      "componentType": 5125,
      "count": 324765,
      "type": "SCALAR"
    },
    {
      "bufferView": 1,
      "byteOffset": 1572768,
      "componentType": 5126,
      "count": 65532,
      "max": [
        213.351318359375,
        0.0,
        186.44940185546875
      ],
      "min": [
        37.422119140625,
        -134.9832000732422,
        48.187103271484375
      ],
      "type": "VEC3"
    },
    {
      "bufferView": 1,
      "byteOffset": 2359152,
      "componentType": 5126,
      "count": 65532,
      "max": [
        0.9999411106109619,
        0.9997249245643616,
        0.9997501969337463
      ],
      "min": [
        -0.9999912977218628,
        -0.9998587369918823,
        -0.9999721050262451
      ],
      "type": "VEC3"
    },
    {
      "bufferView": 0,
      "byteOffset": 1299060,
      "componentType": 5125,
      "count": 332676,
      "type": "SCALAR"
    },
    {
      "bufferView": 1,
      "byteOffset": 3145536,
      "componentType": 5126,
      "count": 53655,
      "max": [
        213.1526641845703,
        -0.017088649794459343,
        186.44940185546875
      ],
      "min": [
        36.64866256713867,
        -134.954833984375,
        48.187103271484375
      ],
      "type": "VEC3"
    },
    {
      "bufferView": 1,
      "byteOffset": 3789396,
      "componentType": 5126,
      "count": 53655,
      "max": [
        0.9999936819076538,
        0.999757707118988,
        0.9999724626541138
      ],
      "min": [
        -0.9999963045120239,
        -0.9997676014900208,
        -0.9999620914459229
      ],
      "type": "VEC3"
    },
    {
      "bufferView": 0,
      "byteOffset": 2629764,
      "componentType": 5125,
      "count": 182439,
      "type": "SCALAR"
    }
  ],
  "asset": {
    "extras": {
      "author": "flioink (https://sketchfab.com/flioink)",
      "license": "CC-BY-4.0 (http://creativecommons.org/licenses/by/4.0/)",
      "source": "https://sketchfab.com/3d-models/mask-v1-d30bada4745b4d3abec177550aeb9f39",
      "title": "Mask V1"
    },
    "generator": "Sketchfab-12.68.0",
    "version": "2.0"
  },
  "bufferViews": [
    {
      "buffer": 0,
      "byteLength": 3359520,
      "name": "floatBufferViews",
      "target": 34963
    },
    {
      "buffer": 0,
      "byteLength": 4433256,
      "byteOffset": 3359520,
      "byteStride": 12,
      "name": "floatBufferViews",
      "target": 34962
    }
  ],
  "buffers": [
    {
      "byteLength": 7792776,
      "uri": "scene.bin"
    }
  ],
  "materials": [
    {
      "doubleSided": true,
      "name": "material_0",
      "pbrMetallicRoughness": {
        "baseColorFactor": [
          0.11512501161780599,
          0.20662731163673032,
          0.23674021735225748,
          1.0
        ],
        "roughnessFactor": 0.44203358776164503
      }
    }
  ],
  "meshes": [
    {
      "name": "Object_0",
      "primitives": [
        {
          "attributes": {
            "NORMAL": 1,
            "POSITION": 0
          },
          "indices": 2,
          "material": 0,
          "mode": 4
        }
      ]
    },
    {
      "name": "Object_1",
      "primitives": [
        {
          "attributes": {
            "NORMAL": 4,
            "POSITION": 3
          },
          "indices": 5,
          "material": 0,
          "mode": 4
        }
      ]
    },
    {
      "name": "Object_2",
      "primitives": [
        {
          "attributes": {
            "NORMAL": 7,
            "POSITION": 6
          },
          "indices": 8,
          "material": 0,
          "mode": 4
        }
      ]
    }
  ],
  "nodes": [
    {
      "children": [
        1
      ],
      "matrix": [
        1.0,
        0.0,
        0.0,
        0.0,
        0.0,
        2.220446049250313e-16,
        -1.0,
        0.0,
        0.0,
        1.0,
        2.220446049250313e-16,
        0.0,
        0.0,
        0.0,
        0.0,
        1.0
      ],
      "name": "Sketchfab_model"
    },
    {
      "children": [
        2,
        3,
        4
      ],
      "name": "MaskV1.OBJ.cleaner.materialmerger.gles"
    },
    {
      "mesh": 0,
      "name": "Object_2"
    },
    {
      "mesh": 1,
      "name": "Object_3"
    },
    {
      "mesh": 2,
      "name": "Object_4"
    }
  ],
  "scene": 0,
  "scenes": [
    {
      "name": "Sketchfab_Scene",
      "nodes": [
        0
      ]
    }
  ]
}
